<?xml version="1.0" encoding="UTF-8" standalone="no"?>
<svg
   xmlns:dc="http://purl.org/dc/elements/1.1/"
   xmlns:cc="http://creativecommons.org/ns#"
   xmlns:rdf="http://www.w3.org/1999/02/22-rdf-syntax-ns#"
   xmlns:svg="http://www.w3.org/2000/svg"
   xmlns="http://www.w3.org/2000/svg"
   id="svg8"
   version="1.1"
   viewBox="0 0 70.675355 16.65287"
   height="16.65287mm"
   width="70.675354mm">
  <defs
     id="defs2" />
  <metadata
     id="metadata5">
    <rdf:RDF>
      <cc:Work
         rdf:about="">
        <dc:format>image/svg+xml</dc:format>
        <dc:type
           rdf:resource="http://purl.org/dc/dcmitype/StillImage" />
        <dc:title></dc:title>
      </cc:Work>
    </rdf:RDF>
  </metadata>
  <g
     transform="translate(-16.97885,-166.22527)"
     id="layer1">
    <rect
       y="111.92662"
       x="16.971613"
       height="45.970348"
       width="46.436268"
       id="rect4530"
       style="fill:#0e387a;fill-opacity:1;stroke-width:0.15145151" />
    <g
       id="text4528"
       style="font-style:normal;font-weight:normal;font-size:6.14977407px;line-height:1.25;font-family:sans-serif;letter-spacing:0px;word-spacing:0px;fill:#000000;fill-opacity:1;stroke:none;stroke-width:0.15374435"
       transform="rotate(-3)"
       aria-label="unsigned">
      <path
         id="path854"
         style="font-style:normal;font-variant:normal;font-weight:normal;font-stretch:normal;font-size:13.52950287px;font-family:Elliot_Swonger;-inkscape-font-specification:'Elliot_Swonger, Normal';font-variant-ligatures:normal;font-variant-caps:normal;font-variant-numeric:normal;font-feature-settings:normal;text-align:start;writing-mode:lr-tb;text-anchor:start;fill:#ffffff;stroke-width:0.15374435"
         d="m 17.226963,134.27773 q 0,0.63588 -0.514121,0.85236 -0.311179,0.13529 -0.974124,0.13529 0.05412,0 -0.595299,-0.0271 -0.568239,-0.0271 -0.852358,-0.0135 -0.162354,0.0135 -0.54118,0.0541 -0.378826,0.0406 -0.432944,0.0406 -1.001184,0 -1.461187,-0.71706 -0.338237,-0.52765 -0.338237,-1.36648 v -6.03416 q 0,-0.41942 0.284119,-0.70354 0.297649,-0.29765 0.8253,-0.29765 0.460003,0 0.784711,0.24354 0.324708,0.24353 0.324708,0.64941 v 6.34534 q 0,0.23 0.202943,0.41941 0.216472,0.20295 0.432944,0.20295 0.230001,0 0.432944,-0.21648 0.202942,-0.21647 0.202942,-0.41941 v -6.27769 q 0,-0.41942 0.297649,-0.67648 0.311179,-0.27059 0.811771,-0.27059 0.514121,0 0.81177,0.29765 0.297649,0.28412 0.297649,0.69001 z" />
      <path
         id="path856"
         style="font-style:normal;font-variant:normal;font-weight:normal;font-stretch:normal;font-size:13.52950287px;font-family:Elliot_Swonger;-inkscape-font-specification:'Elliot_Swonger, Normal';font-variant-ligatures:normal;font-variant-caps:normal;font-variant-numeric:normal;font-feature-settings:normal;text-align:start;writing-mode:lr-tb;text-anchor:start;fill:#ffffff;stroke-width:0.15374435"
         d="m 23.409944,134.1289 q 0,0.48707 -0.297649,0.74413 -0.297649,0.27059 -0.744123,0.27059 -0.487062,0 -0.771182,-0.28412 -0.27059,-0.28412 -0.27059,-0.69001 v -6.35886 q 0,-0.23001 -0.202942,-0.43295 -0.189413,-0.20294 -0.378826,-0.20294 -0.243531,0 -0.419415,0.21647 -0.175883,0.20294 -0.175883,0.41942 v 6.35886 q 0,0.46 -0.297649,0.71707 -0.297649,0.25706 -0.744123,0.25706 -0.500592,0 -0.771182,-0.29765 -0.25706,-0.28412 -0.25706,-0.7306 v -7.1571 q 0,-0.17589 0.121765,-0.47354 0.121766,-0.29765 0.28412,-0.39235 0.297649,-0.16236 0.757652,-0.16236 0.148824,0 0.419415,0.0271 0.284119,0.0135 0.405885,0.0135 0.338237,0 1.001183,-0.0406 0.662945,-0.0406 0.662945,-0.0406 0.920007,0 1.352951,0.67647 0.324708,0.50059 0.324708,1.2853 z" />
      <path
         id="path858"
         style="font-style:normal;font-variant:normal;font-weight:normal;font-stretch:normal;font-size:13.52950287px;font-family:Elliot_Swonger;-inkscape-font-specification:'Elliot_Swonger, Normal';font-variant-ligatures:normal;font-variant-caps:normal;font-variant-numeric:normal;font-feature-settings:normal;text-align:start;writing-mode:lr-tb;text-anchor:start;fill:#ffffff;stroke-width:0.15374435"
         d="m 28.984076,134.38596 q 0,0.0812 -0.202942,0.29765 -0.202943,0.21647 -0.351768,0.27059 -0.717063,0.31118 -1.867071,0.31118 -1.35295,0 -1.90766,-0.33824 -0.757652,-0.44647 -0.757652,-1.7453 0,-0.58177 0.189413,-0.85236 0.230002,-0.32471 0.81177,-0.32471 0.717064,0 0.920006,0.51412 0.06765,0.47353 0.148825,0.9606 0.09471,0.48706 0.568239,0.48706 0.622357,0 0.622357,-0.97413 0,-0.10823 -0.01353,-0.23 0,-0.12176 0,-0.13529 0,-0.64942 -0.06765,-0.92001 -0.162354,-0.67647 -0.852359,-1.01471 -0.622357,-0.24353 -1.258243,-0.48706 -0.730593,-0.32471 -0.960595,-0.93354 -0.162354,-0.43294 -0.162354,-1.10942 0,-1.46118 0.662946,-1.96178 0.554709,-0.40588 2.029425,-0.40588 0.933536,0 1.691188,0.20294 0.108236,0.0406 0.419414,0.27059 0.338238,0.27059 0.338238,0.40589 v 1.63707 q -0.378826,0.29765 -0.8253,0.29765 -0.608827,0 -0.838829,-0.39236 -0.121765,-0.3653 -0.25706,-0.74412 -0.135295,-0.39236 -0.527651,-0.39236 -0.595298,0 -0.595298,1.08236 0,0.43295 0.02706,0.55471 0.05412,0.23 0.284119,0.58177 0.270591,0.40589 1.028243,0.70353 0.757652,0.28412 1.095889,0.44648 0.135295,0.0676 0.365297,0.28412 0.243531,0.21647 0.243531,0.28412 z" />
      <path
         id="path860"
         style="font-style:normal;font-variant:normal;font-weight:normal;font-stretch:normal;font-size:13.52950287px;font-family:Elliot_Swonger;-inkscape-font-specification:'Elliot_Swonger, Normal';font-variant-ligatures:normal;font-variant-caps:normal;font-variant-numeric:normal;font-feature-settings:normal;text-align:start;writing-mode:lr-tb;text-anchor:start;fill:#ffffff;stroke-width:0.15374435"
         d="m 31.67643,124.86119 q 0,0.62236 -0.784712,0.62236 -0.460003,0 -0.771181,-0.35177 v -0.52765 q 0.230001,-0.27059 0.392355,-0.33823 0.08118,-0.0271 0.378826,-0.0271 0.784712,0 0.784712,0.62235 z m 0.230001,9.60595 q 0,0.44647 -0.25706,0.70353 -0.257061,0.25707 -0.690005,0.25707 -0.460003,0 -0.717064,-0.27059 -0.243531,-0.27059 -0.243531,-0.70354 v -6.87299 q 0,-0.40588 0.243531,-0.69 0.257061,-0.29765 0.717064,-0.29765 0.446474,0 0.717064,0.31118 0.230001,0.27059 0.230001,0.66294 z" />
      <path
         id="path862"
         style="font-style:normal;font-variant:normal;font-weight:normal;font-stretch:normal;font-size:13.52950287px;font-family:Elliot_Swonger;-inkscape-font-specification:'Elliot_Swonger, Normal';font-variant-ligatures:normal;font-variant-caps:normal;font-variant-numeric:normal;font-feature-settings:normal;text-align:start;writing-mode:lr-tb;text-anchor:start;fill:#ffffff;stroke-width:0.15374435"
         d="m 37.412931,135.44126 q 0,1.38001 -0.987654,1.77237 -0.500592,0.20294 -1.934719,0.20294 -1.407068,0 -1.407068,-0.35176 0,-0.27059 0.608827,-0.31118 0.933536,-0.0541 1.10942,-0.10824 0.608827,-0.17588 0.608827,-0.75765 0,-0.64942 -0.744122,-0.73059 -0.378827,0 -1.163538,-0.12177 -0.460003,-0.14882 -0.622357,-0.55471 -0.284119,-0.70353 -0.284119,-1.40707 v -4.99238 q 0,-1.98884 1.515304,-1.98884 0.05412,0 0.54118,0.0541 0.500592,0.0406 0.55471,0.0406 0.05412,0 0.487062,-0.0135 0.446473,-0.0271 0.487062,-0.0271 0.608827,0 0.879418,0.17588 0.351767,0.23 0.351767,0.81177 z m -1.867072,-2.17825 v -5.29003 q 0,-0.14883 -0.175883,-0.37883 -0.162354,-0.24353 -0.365297,-0.24353 -0.175883,0 -0.365297,0.20294 -0.175883,0.20295 -0.175883,0.43295 v 5.26298 q 0,0.17588 0.162354,0.40588 0.175884,0.23 0.378826,0.23 0.175884,0 0.351767,-0.21647 0.189413,-0.20294 0.189413,-0.40589 z" />
      <path
         id="path864"
         style="font-style:normal;font-variant:normal;font-weight:normal;font-stretch:normal;font-size:13.52950287px;font-family:Elliot_Swonger;-inkscape-font-specification:'Elliot_Swonger, Normal';font-variant-ligatures:normal;font-variant-caps:normal;font-variant-numeric:normal;font-feature-settings:normal;text-align:start;writing-mode:lr-tb;text-anchor:start;fill:#ffffff;stroke-width:0.15374435"
         d="m 43.663554,134.1289 q 0,0.48707 -0.297649,0.74413 -0.297649,0.27059 -0.744122,0.27059 -0.487062,0 -0.771182,-0.28412 -0.27059,-0.28412 -0.27059,-0.69001 v -6.35886 q 0,-0.23001 -0.202943,-0.43295 -0.189413,-0.20294 -0.378826,-0.20294 -0.243531,0 -0.419414,0.21647 -0.175884,0.20294 -0.175884,0.41942 v 6.35886 q 0,0.46 -0.297649,0.71707 -0.297649,0.25706 -0.744122,0.25706 -0.500592,0 -0.771182,-0.29765 -0.257061,-0.28412 -0.257061,-0.7306 v -7.1571 q 0,-0.17589 0.121766,-0.47354 0.121765,-0.29765 0.284119,-0.39235 0.297649,-0.16236 0.757653,-0.16236 0.148824,0 0.419414,0.0271 0.28412,0.0135 0.405885,0.0135 0.338238,0 1.001183,-0.0406 0.662946,-0.0406 0.662946,-0.0406 0.920006,0 1.35295,0.67647 0.324708,0.50059 0.324708,1.2853 z" />
      <path
         id="path866"
         style="font-style:normal;font-variant:normal;font-weight:normal;font-stretch:normal;font-size:13.52950287px;font-family:Elliot_Swonger;-inkscape-font-specification:'Elliot_Swonger, Normal';font-variant-ligatures:normal;font-variant-caps:normal;font-variant-numeric:normal;font-feature-settings:normal;text-align:start;writing-mode:lr-tb;text-anchor:start;fill:#ffffff;stroke-width:0.15374435"
         d="m 49.548863,133.4389 q 0,1.21765 -0.892947,1.66413 -0.595298,0.29765 -1.880601,0.29765 -2.773548,0 -2.773548,-1.73178 v -5.68239 q 0,-1.08236 0.933536,-1.48825 0.608827,-0.25706 1.812953,-0.25706 1.826483,0 2.354134,0.56824 0.446473,0.48706 0.446473,2.13766 0,1.04178 0.01353,0.79824 -0.02706,0.52765 -0.243531,0.79824 -0.297649,0.35177 -1.271773,0.3653 -1.068831,0.0135 -1.339421,0.20294 -0.432944,0.32471 -0.527651,0.74413 -0.02706,0.12176 -0.02706,0.86588 0,0.64942 0.04059,0.83883 0.121765,0.5953 0.581768,0.5953 0.487062,0 0.595298,-0.48706 0.06765,-0.46 0.148825,-0.92001 0.202942,-0.48706 0.947065,-0.48706 1.08236,0 1.08236,1.17707 z m -2.16472,-4.85709 q 0,-1.08236 -0.608828,-1.08236 -0.622357,0 -0.622357,1.08236 0,1.08236 0.622357,1.08236 0.608828,0 0.608828,-1.08236 z" />
      <path
         id="path868"
         style="font-style:normal;font-variant:normal;font-weight:normal;font-stretch:normal;font-size:13.52950287px;font-family:Elliot_Swonger;-inkscape-font-specification:'Elliot_Swonger, Normal';font-variant-ligatures:normal;font-variant-caps:normal;font-variant-numeric:normal;font-feature-settings:normal;text-align:start;writing-mode:lr-tb;text-anchor:start;fill:#ffffff;stroke-width:0.15374435"
         d="m 55.596531,134.22361 q 0,1.06883 -1.325891,1.06883 h -2.272957 q -1.758835,0 -1.758835,-1.97531 v -5.80415 q 0,-0.0947 0.108236,-0.81177 0.135295,-0.8253 1.001183,-1.02825 0.703534,-0.10823 1.407068,-0.20294 0.500592,-0.16235 0.662946,-0.75765 0.121766,-0.50059 0.243531,-1.00118 0.216472,-0.48707 0.879418,-0.48707 0.514121,0 0.784711,0.31118 0.27059,0.31118 0.27059,0.75765 z m -2.097073,-0.94707 v -5.68239 q 0,-0.14882 -0.148825,-0.39235 -0.189413,-0.32471 -0.460003,-0.32471 -0.216472,0 -0.405885,0.25706 -0.189413,0.25706 -0.189413,0.47353 v 5.65533 q 0,0.16236 0.162354,0.41942 0.189413,0.31118 0.432944,0.31118 0.230002,0 0.432944,-0.27059 0.175884,-0.23 0.175884,-0.44648 z" />
    </g>
    <g
       id="text4532"
       style="font-style:normal;font-weight:normal;font-size:6.14977407px;line-height:1.25;font-family:sans-serif;letter-spacing:0px;word-spacing:0px;fill:#000000;fill-opacity:1;stroke:none;stroke-width:0.15374435"
       transform="rotate(-3)"
       aria-label=".fm">
      <path
         id="path847"
         style="font-style:normal;font-variant:normal;font-weight:normal;font-stretch:normal;font-size:13.52950287px;font-family:Elliot_Swonger;-inkscape-font-specification:'Elliot_Swonger, Normal';font-variant-ligatures:normal;font-variant-caps:normal;font-variant-numeric:normal;font-feature-settings:normal;text-align:start;writing-mode:lr-tb;text-anchor:start;fill:#ffffff;stroke-width:0.15374435"
         d="m 40.684769,149.24149 q 0,0.43295 -0.297649,0.69001 -0.28412,0.25706 -0.690005,0.25706 -0.460003,0 -0.730593,-0.28412 -0.257061,-0.28412 -0.257061,-0.66295 0,-0.41941 0.28412,-0.69 0.297649,-0.27059 0.703534,-0.27059 0.432944,0 0.703534,0.28412 0.28412,0.28412 0.28412,0.67647 z" />
      <path
         id="path849"
         style="font-style:normal;font-variant:normal;font-weight:normal;font-stretch:normal;font-size:13.52950287px;font-family:Elliot_Swonger;-inkscape-font-specification:'Elliot_Swonger, Normal';font-variant-ligatures:normal;font-variant-caps:normal;font-variant-numeric:normal;font-feature-settings:normal;text-align:start;writing-mode:lr-tb;text-anchor:start;fill:#ffffff;stroke-width:0.15374435"
         d="m 44.297139,140.78556 q 0,0.16235 -0.121766,0.29764 -0.662945,0.71707 -0.662945,1.02825 v 6.52122 q 0,0.46 -0.28412,0.73059 -0.27059,0.28412 -0.744123,0.28412 -0.487062,0 -0.757652,-0.29765 -0.25706,-0.28412 -0.25706,-0.73059 v -6.49416 q 0,-0.0541 -0.230002,-0.64942 -0.216472,-0.60883 -0.216472,-0.67648 0,-0.16235 0.378826,-0.98765 0.162354,-0.39235 0.338238,-0.78471 0.230001,-0.39236 0.608827,-0.56824 0.527651,-0.23 1.217656,-0.23 0.676475,0 0.676475,0.37883 0,0.0406 -0.06765,0.23 -0.473532,0.56824 -0.473532,0.83883 0,0.0676 0.297649,0.55471 0.297649,0.48706 0.297649,0.55471 z" />
      <path
         id="path851"
         style="font-style:normal;font-variant:normal;font-weight:normal;font-stretch:normal;font-size:13.52950287px;font-family:Elliot_Swonger;-inkscape-font-specification:'Elliot_Swonger, Normal';font-variant-ligatures:normal;font-variant-caps:normal;font-variant-numeric:normal;font-feature-settings:normal;text-align:start;writing-mode:lr-tb;text-anchor:start;fill:#ffffff;stroke-width:0.15374435"
         d="m 53.997791,148.47031 q 0,0.40589 -0.297649,0.70354 -0.297649,0.29765 -0.81177,0.29765 -0.473533,0 -0.8253,-0.29765 -0.338237,-0.28412 -0.338237,-0.66295 v -6.2371 q 0,-0.16235 -0.148825,-0.3653 -0.189413,-0.21647 -0.405885,-0.21647 -0.216472,0 -0.392355,0.21647 -0.175884,0.20295 -0.175884,0.35177 v 6.30475 q 0,0.41941 -0.392356,0.67647 -0.338237,0.23001 -0.744122,0.23001 -0.487062,0 -0.784711,-0.28412 -0.28412,-0.28412 -0.28412,-0.67648 v -6.27769 q 0,-0.21647 -0.216472,-0.41941 -0.202943,-0.21647 -0.432944,-0.21647 -0.257061,0 -0.460003,0.24353 -0.189413,0.24353 -0.189413,0.37882 v 6.29122 q 0,0.3653 -0.297649,0.66295 -0.28412,0.29765 -0.744123,0.29765 -0.527651,0 -0.81177,-0.33824 -0.243531,-0.28412 -0.243531,-0.67648 v -7.11652 q 0,-1.01471 1.271773,-1.01471 0.06765,0 0.703534,0.0541 0.649416,0.0406 0.717064,0.0406 0.05412,0 0.635887,-0.0406 0.581768,-0.0541 0.662945,-0.0541 0.06765,0 0.8253,0.0947 0.771182,0.0947 0.838829,0.0947 0.06765,0 0.798241,-0.0947 0.744122,-0.0947 0.784711,-0.0947 0.933536,0 1.393539,0.66295 0.365296,0.51412 0.365296,1.27177 z" />
    </g>
    <g
       id="text53"
       style="font-style:normal;font-weight:normal;font-size:10.58333302px;line-height:1.25;font-family:sans-serif;letter-spacing:0px;word-spacing:0px;fill:#0e387a;fill-opacity:1;stroke:none;stroke-width:0.26458332"
       aria-label="unsigned.fm">
      <path
         id="path824"
         style="font-style:normal;font-variant:normal;font-weight:normal;font-stretch:normal;font-size:15.875px;font-family:Elliot_Swonger;-inkscape-font-specification:'Elliot_Swonger, Normal';font-variant-ligatures:normal;font-variant-caps:normal;font-variant-numeric:normal;font-feature-settings:normal;text-align:start;writing-mode:lr-tb;text-anchor:start;fill:#0e387a;fill-opacity:1;stroke-width:0.26458332"
         d="m 23.6781,179.19514 q 0,0.74613 -0.60325,1.00013 -0.365125,0.15875 -1.143,0.15875 0.0635,0 -0.6985,-0.0317 -0.66675,-0.0318 -1.000125,-0.0159 -0.1905,0.0159 -0.635,0.0635 -0.4445,0.0476 -0.508,0.0476 -1.17475,0 -1.7145,-0.84138 -0.396875,-0.61912 -0.396875,-1.60337 v -7.08025 q 0,-0.49213 0.333375,-0.8255 0.34925,-0.34925 0.968375,-0.34925 0.53975,0 0.92075,0.28575 0.381,0.28575 0.381,0.762 v 7.44537 q 0,0.26988 0.238125,0.49213 0.254,0.23812 0.508,0.23812 0.269875,0 0.508,-0.254 0.238125,-0.254 0.238125,-0.49212 v -7.366 q 0,-0.49213 0.34925,-0.79375 0.365125,-0.3175 0.9525,-0.3175 0.60325,0 0.9525,0.34925 0.34925,0.33337 0.34925,0.80962 z" />
      <path
         id="path826"
         style="font-style:normal;font-variant:normal;font-weight:normal;font-stretch:normal;font-size:15.875px;font-family:Elliot_Swonger;-inkscape-font-specification:'Elliot_Swonger, Normal';font-variant-ligatures:normal;font-variant-caps:normal;font-variant-numeric:normal;font-feature-settings:normal;text-align:start;writing-mode:lr-tb;text-anchor:start;fill:#0e387a;fill-opacity:1;stroke-width:0.26458332"
         d="m 30.932972,179.02052 q 0,0.5715 -0.34925,0.87312 -0.34925,0.3175 -0.873125,0.3175 -0.5715,0 -0.904875,-0.33337 -0.3175,-0.33338 -0.3175,-0.80963 v -7.46125 q 0,-0.26987 -0.238125,-0.508 -0.22225,-0.23812 -0.4445,-0.23812 -0.28575,0 -0.492125,0.254 -0.206375,0.23812 -0.206375,0.49212 v 7.46125 q 0,0.53975 -0.34925,0.84138 -0.34925,0.30162 -0.873125,0.30162 -0.587375,0 -0.904875,-0.34925 -0.301625,-0.33337 -0.301625,-0.85725 v -8.39787 q 0,-0.20638 0.142875,-0.55563 0.142875,-0.34925 0.333375,-0.46037 0.34925,-0.1905 0.889,-0.1905 0.174625,0 0.492125,0.0317 0.333375,0.0159 0.47625,0.0159 0.396875,0 1.17475,-0.0476 0.777875,-0.0476 0.777875,-0.0476 1.0795,0 1.5875,0.79375 0.381,0.58738 0.381,1.50813 z" />
      <path
         id="path828"
         style="font-style:normal;font-variant:normal;font-weight:normal;font-stretch:normal;font-size:15.875px;font-family:Elliot_Swonger;-inkscape-font-specification:'Elliot_Swonger, Normal';font-variant-ligatures:normal;font-variant-caps:normal;font-variant-numeric:normal;font-feature-settings:normal;text-align:start;writing-mode:lr-tb;text-anchor:start;fill:#0e387a;fill-opacity:1;stroke-width:0.26458332"
         d="m 37.473445,179.32214 q 0,0.0953 -0.238125,0.34925 -0.238125,0.254 -0.41275,0.3175 -0.841375,0.36513 -2.19075,0.36513 -1.5875,0 -2.238375,-0.39688 -0.889,-0.52387 -0.889,-2.04787 0,-0.68263 0.22225,-1.00013 0.269875,-0.381 0.9525,-0.381 0.841375,0 1.0795,0.60325 0.07937,0.55563 0.174625,1.12713 0.111125,0.5715 0.66675,0.5715 0.73025,0 0.73025,-1.143 0,-0.127 -0.01588,-0.26988 0,-0.14287 0,-0.15875 0,-0.762 -0.07937,-1.0795 -0.1905,-0.79375 -1.000125,-1.19062 -0.73025,-0.28575 -1.476375,-0.5715 -0.85725,-0.381 -1.127125,-1.09538 -0.1905,-0.508 -0.1905,-1.30175 0,-1.7145 0.777875,-2.30187 0.650875,-0.47625 2.38125,-0.47625 1.095375,0 1.984375,0.23812 0.127,0.0476 0.492125,0.3175 0.396875,0.3175 0.396875,0.47625 v 1.92088 q -0.4445,0.34925 -0.968375,0.34925 -0.714375,0 -0.98425,-0.46038 -0.142875,-0.42862 -0.301625,-0.87312 -0.15875,-0.46038 -0.619125,-0.46038 -0.6985,0 -0.6985,1.27 0,0.508 0.03175,0.65088 0.0635,0.26987 0.333375,0.68262 0.3175,0.47625 1.2065,0.8255 0.889,0.33338 1.285875,0.52388 0.15875,0.0794 0.428625,0.33337 0.28575,0.254 0.28575,0.33338 z" />
      <path
         id="path830"
         style="font-style:normal;font-variant:normal;font-weight:normal;font-stretch:normal;font-size:15.875px;font-family:Elliot_Swonger;-inkscape-font-specification:'Elliot_Swonger, Normal';font-variant-ligatures:normal;font-variant-caps:normal;font-variant-numeric:normal;font-feature-settings:normal;text-align:start;writing-mode:lr-tb;text-anchor:start;fill:#0e387a;fill-opacity:1;stroke-width:0.26458332"
         d="m 40.632548,168.14614 q 0,0.73025 -0.92075,0.73025 -0.53975,0 -0.904875,-0.41275 v -0.61912 q 0.269875,-0.3175 0.460375,-0.39688 0.09525,-0.0318 0.4445,-0.0318 0.92075,0 0.92075,0.73025 z m 0.269875,11.27125 q 0,0.52388 -0.301625,0.8255 -0.301625,0.30163 -0.809625,0.30163 -0.53975,0 -0.841375,-0.3175 -0.28575,-0.3175 -0.28575,-0.8255 v -8.0645 q 0,-0.47625 0.28575,-0.80963 0.301625,-0.34925 0.841375,-0.34925 0.523875,0 0.841375,0.36513 0.269875,0.3175 0.269875,0.77787 z" />
      <path
         id="path832"
         style="font-style:normal;font-variant:normal;font-weight:normal;font-stretch:normal;font-size:15.875px;font-family:Elliot_Swonger;-inkscape-font-specification:'Elliot_Swonger, Normal';font-variant-ligatures:normal;font-variant-caps:normal;font-variant-numeric:normal;font-feature-settings:normal;text-align:start;writing-mode:lr-tb;text-anchor:start;fill:#0e387a;fill-opacity:1;stroke-width:0.26458332"
         d="m 47.363539,180.56039 q 0,1.61925 -1.158875,2.07963 -0.587375,0.23812 -2.270125,0.23812 -1.651,0 -1.651,-0.41275 0,-0.3175 0.714375,-0.36512 1.095375,-0.0635 1.30175,-0.127 0.714375,-0.20638 0.714375,-0.889 0,-0.762 -0.873125,-0.85725 -0.4445,0 -1.36525,-0.14288 -0.53975,-0.17462 -0.73025,-0.65087 -0.333375,-0.8255 -0.333375,-1.651 v -5.85788 q 0,-2.33362 1.778,-2.33362 0.0635,0 0.635,0.0635 0.587375,0.0476 0.650875,0.0476 0.0635,0 0.5715,-0.0159 0.523875,-0.0318 0.5715,-0.0318 0.714375,0 1.031875,0.20637 0.41275,0.26988 0.41275,0.9525 z m -2.19075,-2.55587 v -6.20713 q 0,-0.17462 -0.206375,-0.4445 -0.1905,-0.28575 -0.428625,-0.28575 -0.206375,0 -0.428625,0.23813 -0.206375,0.23812 -0.206375,0.508 v 6.17537 q 0,0.20638 0.1905,0.47625 0.206375,0.26988 0.4445,0.26988 0.206375,0 0.41275,-0.254 0.22225,-0.23813 0.22225,-0.47625 z" />
      <path
         id="path834"
         style="font-style:normal;font-variant:normal;font-weight:normal;font-stretch:normal;font-size:15.875px;font-family:Elliot_Swonger;-inkscape-font-specification:'Elliot_Swonger, Normal';font-variant-ligatures:normal;font-variant-caps:normal;font-variant-numeric:normal;font-feature-settings:normal;text-align:start;writing-mode:lr-tb;text-anchor:start;fill:#0e387a;fill-opacity:1;stroke-width:0.26458332"
         d="m 54.697782,179.02052 q 0,0.5715 -0.34925,0.87312 -0.34925,0.3175 -0.873125,0.3175 -0.5715,0 -0.904875,-0.33337 -0.3175,-0.33338 -0.3175,-0.80963 v -7.46125 q 0,-0.26987 -0.238125,-0.508 -0.22225,-0.23812 -0.4445,-0.23812 -0.28575,0 -0.492125,0.254 -0.206375,0.23812 -0.206375,0.49212 v 7.46125 q 0,0.53975 -0.34925,0.84138 -0.34925,0.30162 -0.873125,0.30162 -0.587375,0 -0.904875,-0.34925 -0.301625,-0.33337 -0.301625,-0.85725 v -8.39787 q 0,-0.20638 0.142875,-0.55563 0.142875,-0.34925 0.333375,-0.46037 0.34925,-0.1905 0.889,-0.1905 0.174625,0 0.492125,0.0317 0.333375,0.0159 0.47625,0.0159 0.396875,0 1.17475,-0.0476 0.777875,-0.0476 0.777875,-0.0476 1.0795,0 1.5875,0.79375 0.381,0.58738 0.381,1.50813 z" />
      <path
         id="path836"
         style="font-style:normal;font-variant:normal;font-weight:normal;font-stretch:normal;font-size:15.875px;font-family:Elliot_Swonger;-inkscape-font-specification:'Elliot_Swonger, Normal';font-variant-ligatures:normal;font-variant-caps:normal;font-variant-numeric:normal;font-feature-settings:normal;text-align:start;writing-mode:lr-tb;text-anchor:start;fill:#0e387a;fill-opacity:1;stroke-width:0.26458332"
         d="m 61.603378,178.21089 q 0,1.42875 -1.04775,1.95263 -0.6985,0.34925 -2.206625,0.34925 -3.254375,0 -3.254375,-2.032 v -6.6675 q 0,-1.27 1.095375,-1.74625 0.714375,-0.30163 2.12725,-0.30163 2.143125,0 2.76225,0.66675 0.523875,0.5715 0.523875,2.50825 0,1.22238 0.01588,0.93663 -0.03175,0.61912 -0.28575,0.93662 -0.34925,0.41275 -1.49225,0.42863 -1.254125,0.0159 -1.571625,0.23812 -0.508,0.381 -0.619125,0.87313 -0.03175,0.14287 -0.03175,1.016 0,0.762 0.04763,0.98425 0.142875,0.6985 0.682625,0.6985 0.5715,0 0.6985,-0.5715 0.07937,-0.53975 0.174625,-1.0795 0.238125,-0.5715 1.11125,-0.5715 1.27,0 1.27,1.38112 z m -2.54,-5.69912 q 0,-1.27 -0.714375,-1.27 -0.73025,0 -0.73025,1.27 0,1.27 0.73025,1.27 0.714375,0 0.714375,-1.27 z" />
      <path
         id="path838"
         style="font-style:normal;font-variant:normal;font-weight:normal;font-stretch:normal;font-size:15.875px;font-family:Elliot_Swonger;-inkscape-font-specification:'Elliot_Swonger, Normal';font-variant-ligatures:normal;font-variant-caps:normal;font-variant-numeric:normal;font-feature-settings:normal;text-align:start;writing-mode:lr-tb;text-anchor:start;fill:#0e387a;fill-opacity:1;stroke-width:0.26458332"
         d="m 68.69948,179.13164 q 0,1.25413 -1.55575,1.25413 h -2.667 q -2.06375,0 -2.06375,-2.31775 v -6.81038 q 0,-0.11112 0.127,-0.9525 0.15875,-0.96837 1.17475,-1.2065 0.8255,-0.127 1.651,-0.23812 0.587375,-0.1905 0.777875,-0.889 0.142875,-0.58738 0.28575,-1.17475 0.254,-0.5715 1.031875,-0.5715 0.60325,0 0.92075,0.36512 0.3175,0.36513 0.3175,0.889 z m -2.460625,-1.11125 v -6.6675 q 0,-0.17462 -0.174625,-0.46037 -0.22225,-0.381 -0.53975,-0.381 -0.254,0 -0.47625,0.30162 -0.22225,0.30163 -0.22225,0.55563 v 6.63575 q 0,0.1905 0.1905,0.49212 0.22225,0.36513 0.508,0.36513 0.269875,0 0.508,-0.3175 0.206375,-0.26988 0.206375,-0.52388 z" />
      <path
         id="path840"
         style="font-size:15.875px;fill:#333333"
         d="m 72.033216,179.79839 q 0,0.508 -0.34925,0.80963 -0.333375,0.30162 -0.809625,0.30162 -0.53975,0 -0.85725,-0.33337 -0.301625,-0.33338 -0.301625,-0.77788 0,-0.49212 0.333375,-0.80962 0.34925,-0.3175 0.8255,-0.3175 0.508,0 0.8255,0.33337 0.333375,0.33338 0.333375,0.79375 z" />
      <path
         id="path842"
         style="font-size:15.875px;fill:#333333"
         d="m 76.271833,169.87652 q 0,0.1905 -0.142875,0.34925 -0.777875,0.84137 -0.777875,1.2065 v 7.65175 q 0,0.53975 -0.333375,0.85725 -0.3175,0.33337 -0.873125,0.33337 -0.5715,0 -0.889,-0.34925 -0.301625,-0.33337 -0.301625,-0.85725 v -7.62 q 0,-0.0635 -0.269875,-0.762 -0.254,-0.71437 -0.254,-0.79375 0,-0.1905 0.4445,-1.15887 0.1905,-0.46038 0.396875,-0.92075 0.269875,-0.46038 0.714375,-0.66675 0.619125,-0.26988 1.42875,-0.26988 0.79375,0 0.79375,0.4445 0,0.0476 -0.07937,0.26988 -0.555625,0.66675 -0.555625,0.98425 0,0.0794 0.34925,0.65087 0.34925,0.5715 0.34925,0.65088 z" />
      <path
         id="path844"
         style="font-size:15.875px;fill:#333333"
         d="m 87.654206,178.89352 q 0,0.47625 -0.34925,0.8255 -0.34925,0.34925 -0.9525,0.34925 -0.555625,0 -0.968375,-0.34925 -0.396875,-0.33338 -0.396875,-0.77788 v -7.31837 q 0,-0.1905 -0.174625,-0.42863 -0.22225,-0.254 -0.47625,-0.254 -0.254,0 -0.460375,0.254 -0.206375,0.23813 -0.206375,0.41275 v 7.39775 q 0,0.49213 -0.460375,0.79375 -0.396875,0.26988 -0.873125,0.26988 -0.5715,0 -0.92075,-0.33338 -0.333375,-0.33337 -0.333375,-0.79375 v -7.366 q 0,-0.254 -0.254,-0.49212 -0.238125,-0.254 -0.508,-0.254 -0.301625,0 -0.53975,0.28575 -0.22225,0.28575 -0.22225,0.4445 v 7.38187 q 0,0.42863 -0.34925,0.77788 -0.333375,0.34925 -0.873125,0.34925 -0.619125,0 -0.9525,-0.39688 -0.28575,-0.33337 -0.28575,-0.79375 v -8.35025 q 0,-1.19062 1.49225,-1.19062 0.07937,0 0.8255,0.0635 0.762,0.0476 0.841375,0.0476 0.0635,0 0.746125,-0.0476 0.682625,-0.0635 0.777875,-0.0635 0.07937,0 0.968375,0.11112 0.904875,0.11113 0.98425,0.11113 0.07937,0 0.936625,-0.11113 0.873125,-0.11112 0.92075,-0.11112 1.095375,0 1.635125,0.77787 0.428625,0.60325 0.428625,1.49225 z" />
    </g>
    <flowRoot
       style="font-style:normal;font-weight:normal;font-size:40px;line-height:1.25;font-family:sans-serif;letter-spacing:0px;word-spacing:0px;fill:#000000;fill-opacity:1;stroke:none"
       id="flowRoot57"
       xml:space="preserve"><flowRegion
         id="flowRegion59"><rect
           y="612.51971"
           x="70.714287"
           height="123.57143"
           width="375.71429"
           id="rect61" /></flowRegion><flowPara
         id="flowPara63" /></flowRoot>  </g>
</svg>
