<?xml version="1.0" encoding="UTF-8" standalone="no"?>
<svg
   xmlns:dc="http://purl.org/dc/elements/1.1/"
   xmlns:cc="http://creativecommons.org/ns#"
   xmlns:rdf="http://www.w3.org/1999/02/22-rdf-syntax-ns#"
   xmlns:svg="http://www.w3.org/2000/svg"
   xmlns="http://www.w3.org/2000/svg"
   id="svg8"
   version="1.1"
   viewBox="0 0 100.79511 19.718302"
   height="19.718302mm"
   width="100.79511mm">
  <defs
     id="defs2" />
  <metadata
     id="metadata5">
    <rdf:RDF>
      <cc:Work
         rdf:about="">
        <dc:format>image/svg+xml</dc:format>
        <dc:type
           rdf:resource="http://purl.org/dc/dcmitype/StillImage" />
        <dc:title></dc:title>
      </cc:Work>
    </rdf:RDF>
  </metadata>
  <g
     transform="translate(-41.74041,-82.817767)"
     id="layer1">
    <path
       d="m 51.916973,94.199225 c -0.612422,1.876777 -3.081866,3.595511 -2.667,1.303866 0.414867,-2.291644 0.849489,-4.543778 1.442156,-7.763933 h -2.647245 c -1.2446,6.5786 -1.284111,6.795911 -1.323622,6.993467 -0.869244,1.639711 -2.805289,2.943577 -2.410178,0.770466 0.395111,-2.192867 0.889,-4.543778 1.501423,-7.763933 h -2.686756 l -1.264356,6.341533 c -0.829733,4.543778 2.805289,4.484511 4.899378,1.896534 0.474134,3.141133 4.662311,1.817511 5.926667,-1.778 z"
       style="font-style:normal;font-variant:normal;font-weight:normal;font-stretch:normal;font-size:19.75555611px;line-height:1.25;font-family:'Blenda Script';-inkscape-font-specification:'Blenda Script, Normal';font-variant-ligatures:normal;font-variant-caps:normal;font-variant-numeric:normal;font-feature-settings:normal;text-align:start;letter-spacing:0px;word-spacing:0px;writing-mode:lr-tb;text-anchor:start;fill:#222222;fill-opacity:1;stroke:none;stroke-width:0.26458332"
       id="path823" />
    <path
       d="m 62.782526,94.159713 c -0.632178,1.916289 -3.437467,3.753556 -3.002844,1.323623 0.434622,-2.410178 0.316089,-1.698978 0.790222,-4.148667 0.829733,-4.445 -2.923822,-4.524022 -5.057422,-2.113845 l 0.296333,-1.481666 h -2.706511 l -1.995311,9.877778 h 2.805289 l 1.2446,-6.558845 c 0.730955,-1.817511 3.397955,-3.437467 2.963333,-1.165578 -0.256822,1.382889 -0.513644,2.765778 -0.790222,4.148667 -0.869245,5.1562 4.484511,4.662311 6.223,0.118533 z"
       style="font-style:normal;font-variant:normal;font-weight:normal;font-stretch:normal;font-size:19.75555611px;line-height:1.25;font-family:'Blenda Script';-inkscape-font-specification:'Blenda Script, Normal';font-variant-ligatures:normal;font-variant-caps:normal;font-variant-numeric:normal;font-feature-settings:normal;text-align:start;letter-spacing:0px;word-spacing:0px;writing-mode:lr-tb;text-anchor:start;fill:#222222;fill-opacity:1;stroke:none;stroke-width:0.26458332"
       id="path825" />
    <path
       d="m 70.803256,91.077847 c 0.158045,-0.612423 0.158045,-1.2446 -0.03951,-1.718734 -0.474133,-1.027289 -1.6002,-1.6002 -3.081867,-1.679222 -1.027288,-0.09878 -2.054577,0.01976 -2.983088,0.434622 -1.718734,0.691445 -2.034823,2.153356 -1.205089,3.279423 0.276577,0.474133 0.869244,1.007533 1.382889,1.303866 0.493888,0.375356 0.889,0.5334 1.580444,0.928511 0.553156,0.414867 1.264356,0.987778 0.968022,1.659467 -0.256822,0.592667 -0.770466,0.987778 -1.402644,1.264356 -1.106311,0.414866 -2.429934,0.217311 -2.686756,-0.434623 -0.256822,-0.5334 0.296333,-1.185333 1.521178,-1.560688 l -1.461911,-1.244601 c -1.185334,0.513645 -1.778,1.600201 -1.619956,2.548467 0.592667,3.220156 9.344378,2.212623 8.317089,-1.896533 -0.1778,-0.493889 -0.493889,-0.869245 -0.928511,-1.224845 -0.493889,-0.335844 -1.086555,-0.691444 -1.6002,-0.948266 -0.592667,-0.316089 -1.086555,-0.651934 -1.4224,-0.948267 -0.256822,-0.276578 -0.316089,-0.335844 -0.375355,-0.770467 -0.07902,-0.395111 0.256822,-0.968022 0.869244,-1.224844 0.3556,-0.276578 0.948267,-0.414867 1.382889,-0.335845 1.185333,0.09878 0.849489,1.185334 0.553156,1.778 z"
       style="font-style:normal;font-variant:normal;font-weight:normal;font-stretch:normal;font-size:19.75555611px;line-height:1.25;font-family:'Blenda Script';-inkscape-font-specification:'Blenda Script, Normal';font-variant-ligatures:normal;font-variant-caps:normal;font-variant-numeric:normal;font-feature-settings:normal;text-align:start;letter-spacing:0px;word-spacing:0px;writing-mode:lr-tb;text-anchor:start;fill:#222222;fill-opacity:1;stroke:none;stroke-width:0.26458332"
       id="path827" />
    <path
       d="m 76.690395,94.120202 c -0.671689,1.936045 -3.615267,3.694289 -3.160889,1.323623 0.454378,-2.331156 0.908755,-4.365978 1.540933,-7.704667 h -2.726267 l -1.303866,6.262511 c -1.106311,5.531556 4.859867,4.385733 6.420556,0.118533 z m -2.607734,-7.487355 c 0.434623,0 0.809978,-0.138289 1.126067,-0.434623 0.316089,-0.296333 0.493889,-0.651933 0.493889,-1.106311 0,-0.434622 -0.158044,-0.790222 -0.474133,-1.106311 -0.296334,-0.296333 -0.632178,-0.454378 -1.086556,-0.454378 -0.454378,0 -0.809978,0.158045 -1.126067,0.454378 -0.296333,0.316089 -0.434622,0.671689 -0.454377,1.106311 0,0.454378 0.138288,0.809978 0.414866,1.106311 0.296334,0.296334 0.671689,0.434623 1.106311,0.434623 z"
       style="font-style:normal;font-variant:normal;font-weight:normal;font-stretch:normal;font-size:19.75555611px;line-height:1.25;font-family:'Blenda Script';-inkscape-font-specification:'Blenda Script, Normal';font-variant-ligatures:normal;font-variant-caps:normal;font-variant-numeric:normal;font-feature-settings:normal;text-align:start;letter-spacing:0px;word-spacing:0px;writing-mode:lr-tb;text-anchor:start;fill:#222222;fill-opacity:1;stroke:none;stroke-width:0.26458332"
       id="path829" />
    <path
       d="m 84.65185,87.64038 h -2.765778 c -0.414866,0 -0.770466,0.01976 -1.145822,0.03951 -1.975556,0.09878 -4.603044,1.896533 -4.998156,6.440311 -0.335844,4.010378 3.891845,4.701823 6.084712,1.9558 l -0.908756,4.385739 -0.07902,0.31608 c -0.5334,0.31609 -1.264356,0.21732 -2.252134,-0.5334 l -1.817511,1.89654 c 5.847645,1.67922 7.191023,-2.449692 8.020756,-7.052736 l 1.521178,-7.447845 c -0.07902,0 -1.580445,0 -1.659467,0 z m -2.4892,6.736645 c -2.726267,3.714044 -4.109156,1.857022 -3.318933,-1.817512 0.730955,-3.259666 3.121378,-5.413022 4.326467,-3.180644 z"
       style="font-style:normal;font-variant:normal;font-weight:normal;font-stretch:normal;font-size:19.75555611px;line-height:1.25;font-family:'Blenda Script';-inkscape-font-specification:'Blenda Script, Normal';font-variant-ligatures:normal;font-variant-caps:normal;font-variant-numeric:normal;font-feature-settings:normal;text-align:start;letter-spacing:0px;word-spacing:0px;writing-mode:lr-tb;text-anchor:start;fill:#222222;fill-opacity:1;stroke:none;stroke-width:0.26458332"
       id="path831" />
    <path
       d="m 97.947316,94.159713 c -0.632177,1.916289 -3.437466,3.753556 -3.002844,1.323623 0.434622,-2.410178 0.316089,-1.698978 0.790222,-4.148667 0.829733,-4.445 -2.923822,-4.524022 -5.057422,-2.113845 l 0.296333,-1.481666 h -2.706511 l -1.995311,9.877778 h 2.805289 l 1.2446,-6.558845 c 0.730955,-1.817511 3.397955,-3.437467 2.963333,-1.165578 -0.256822,1.382889 -0.513644,2.765778 -0.790222,4.148667 -0.869245,5.1562 4.484511,4.662311 6.223,0.118533 z"
       style="font-style:normal;font-variant:normal;font-weight:normal;font-stretch:normal;font-size:19.75555611px;line-height:1.25;font-family:'Blenda Script';-inkscape-font-specification:'Blenda Script, Normal';font-variant-ligatures:normal;font-variant-caps:normal;font-variant-numeric:normal;font-feature-settings:normal;text-align:start;letter-spacing:0px;word-spacing:0px;writing-mode:lr-tb;text-anchor:start;fill:#222222;fill-opacity:1;stroke:none;stroke-width:0.26458332"
       id="path833" />
    <path
       d="m 104.82223,94.21898 c -0.92852,1.540933 -2.52872,2.726267 -4.04989,2.015067 -0.849493,-0.414867 -1.205093,-1.521178 -1.224848,-2.469445 1.698978,0.05927 3.358448,-0.553155 4.247448,-2.192866 0.59266,-1.165578 0.57291,-2.667001 -0.43463,-3.476978 -1.12606,-0.948267 -3.694285,-0.454378 -5.195707,1.876778 -1.837267,2.923822 -1.778,7.6454 1.955797,7.763933 2.25214,0.05927 3.87209,-0.671689 5.41303,-3.516489 z m -5.195716,-1.6002 c 0.217311,-1.106311 0.572916,-1.995311 0.987776,-2.627489 0.7112,-1.126067 1.58045,-1.501422 1.97556,-1.205089 0.49389,0.395111 0.13829,4.148667 -2.983092,4.049889 0,-0.05927 0.01976,-0.138289 0.01976,-0.217311 z"
       style="font-style:normal;font-variant:normal;font-weight:normal;font-stretch:normal;font-size:19.75555611px;line-height:1.25;font-family:'Blenda Script';-inkscape-font-specification:'Blenda Script, Normal';font-variant-ligatures:normal;font-variant-caps:normal;font-variant-numeric:normal;font-feature-settings:normal;text-align:start;letter-spacing:0px;word-spacing:0px;writing-mode:lr-tb;text-anchor:start;fill:#222222;fill-opacity:1;stroke:none;stroke-width:0.26458332"
       id="path835" />
    <path
       d="m 115.68775,94.139958 c -0.65194,1.916289 -3.49674,3.635022 -3.04236,1.323622 0.47414,-2.3114 1.6002,-8.060267 2.3114,-11.675534 h -2.68675 l -0.94827,4.662312 c -0.0988,-0.118534 -0.1778,-0.217311 -0.25682,-0.296334 -1.69898,-1.402644 -6.69714,0 -7.21078,5.985934 -0.3556,4.148667 4.12891,4.701822 6.24276,1.540933 0.25682,3.496734 4.99815,2.192867 6.36128,-1.540933 z m -5.47229,-0.09878 c -0.0198,0.09878 -0.0395,0.237067 -0.0395,0.335845 -2.74602,3.714044 -4.06965,1.837266 -3.27942,-1.758245 0.65193,-3.220156 3.00284,-5.334 4.20793,-3.160889 z"
       style="font-style:normal;font-variant:normal;font-weight:normal;font-stretch:normal;font-size:19.75555611px;line-height:1.25;font-family:'Blenda Script';-inkscape-font-specification:'Blenda Script, Normal';font-variant-ligatures:normal;font-variant-caps:normal;font-variant-numeric:normal;font-feature-settings:normal;text-align:start;letter-spacing:0px;word-spacing:0px;writing-mode:lr-tb;text-anchor:start;fill:#222222;fill-opacity:1;stroke:none;stroke-width:0.26458332"
       id="path837" />
    <path
       d="m 116.33966,96.155025 c 0,0.434622 0.15804,0.809977 0.45438,1.126066 0.31608,0.296334 0.69144,0.454378 1.12606,0.454378 0.43462,0 0.80998,-0.158044 1.14582,-0.454378 0.29634,-0.316089 0.45438,-0.691444 0.45438,-1.126066 0,-0.434623 -0.15804,-0.809978 -0.45438,-1.145823 -0.33584,-0.296333 -0.7112,-0.454377 -1.14582,-0.454377 -0.43462,0 -0.80998,0.158044 -1.12606,0.454377 -0.29634,0.335845 -0.45438,0.7112 -0.45438,1.145823 z"
       style="font-style:normal;font-variant:normal;font-weight:normal;font-stretch:normal;font-size:19.75555611px;line-height:1.25;font-family:'Blenda Script';-inkscape-font-specification:'Blenda Script, Normal';font-variant-ligatures:normal;font-variant-caps:normal;font-variant-numeric:normal;font-feature-settings:normal;text-align:start;letter-spacing:0px;word-spacing:0px;writing-mode:lr-tb;text-anchor:start;fill:#00b22d;fill-opacity:1;stroke:none;stroke-width:0.26458332"
       id="path839" />
    <path
       d="m 126.1384,84.558513 c 0.59267,-0.335844 0.94827,-0.237067 1.91629,0.5334 l 1.91629,-1.936044 c -4.64256,-1.303867 -6.36129,1.363133 -7.25029,4.583289 h -1.04705 L 121.16,88.944247 h 1.2446 c -0.94827,4.6228 -1.83727,8.909755 -2.74602,13.591823 h 2.8448 l 2.74602,-13.591823 h 1.28411 l 0.57291,-1.205089 h -1.6002 l 0.57291,-2.8448 z"
       style="font-style:normal;font-variant:normal;font-weight:normal;font-stretch:normal;font-size:19.75555611px;line-height:1.25;font-family:'Blenda Script';-inkscape-font-specification:'Blenda Script, Normal';font-variant-ligatures:normal;font-variant-caps:normal;font-variant-numeric:normal;font-feature-settings:normal;text-align:start;letter-spacing:0px;word-spacing:0px;writing-mode:lr-tb;text-anchor:start;fill:#00b22d;fill-opacity:1;stroke:none;stroke-width:0.26458332"
       id="path841" />
    <path
       d="m 141.76503,94.258491 c -0.65193,1.876778 -3.29918,2.8448 -2.96333,1.284111 0.29633,-1.6002 0.31609,-1.659466 0.47413,-2.508955 l 0.31609,-1.758245 c 0.94827,-4.642555 -2.60773,-4.445 -4.68207,-1.619955 -0.1778,-2.706512 -3.0226,-2.469445 -4.60304,-0.572912 l 0.25682,-1.343377 h -2.72627 l -1.97555,9.877778 h 2.72626 l 1.36314,-6.795912 c 0.0197,-0.03951 0.0197,-0.05927 0.0395,-0.07902 0.80998,-1.659467 2.80529,-2.904067 2.42993,-0.809978 -0.39511,2.153356 -0.80998,4.603045 -1.36313,7.684912 h 2.60773 c 0.0988,-0.513645 1.00754,-5.729112 1.12607,-6.341534 0.0197,-0.07902 0.0395,-0.118533 0.0593,-0.158044 0.7112,-1.817511 2.8448,-3.496734 2.37066,-1.2446 -0.31609,1.718733 -0.63218,3.299178 -0.90875,4.820355 -0.82974,4.405489 4.64255,3.812823 6.223,-0.434622 z"
       style="font-style:normal;font-variant:normal;font-weight:normal;font-stretch:normal;font-size:19.75555611px;line-height:1.25;font-family:'Blenda Script';-inkscape-font-specification:'Blenda Script, Normal';font-variant-ligatures:normal;font-variant-caps:normal;font-variant-numeric:normal;font-feature-settings:normal;text-align:start;letter-spacing:0px;word-spacing:0px;writing-mode:lr-tb;text-anchor:start;fill:#00b22d;fill-opacity:1;stroke:none;stroke-width:0.26458332"
       id="path843" />
  </g>
</svg>
