<?xml version="1.0" encoding="UTF-8" standalone="no"?>
<svg
   xmlns:dc="http://purl.org/dc/elements/1.1/"
   xmlns:cc="http://creativecommons.org/ns#"
   xmlns:rdf="http://www.w3.org/1999/02/22-rdf-syntax-ns#"
   xmlns:svg="http://www.w3.org/2000/svg"
   xmlns="http://www.w3.org/2000/svg"
   width="139.48766mm"
   height="27.681063mm"
   viewBox="0 0 139.48766 27.681063"
   version="1.1"
   id="svg8">
  <defs
     id="defs2" />
  <metadata
     id="metadata5">
    <rdf:RDF>
      <cc:Work
         rdf:about="">
        <dc:format>image/svg+xml</dc:format>
        <dc:type
           rdf:resource="http://purl.org/dc/dcmitype/StillImage" />
        <dc:title></dc:title>
      </cc:Work>
    </rdf:RDF>
  </metadata>
  <g
     transform="translate(-13.176539,-39.846654)"
     id="g1197">
    <path
       id="path862-6"
       style="font-style:normal;font-weight:normal;font-size:10.58333302px;line-height:1.25;font-family:sans-serif;letter-spacing:0px;word-spacing:0px;fill:#222222;fill-opacity:1;stroke:none;stroke-width:0.7654469"
       d="m 30.567496,54.668208 q -0.857299,1.592131 -2.388194,2.939316 -2.02078,1.775839 -4.102794,1.775839 -0.796066,0 -1.377804,-0.612359 -0.551122,-0.612358 -0.551122,-1.561512 0,-0.336797 0.09185,-0.704212 -0.765449,0.704212 -1.530895,1.224717 -1.89831,1.285951 -3.674145,1.408422 -1.500276,0.122462 -2.143251,-0.704212 -0.520505,-0.673593 -0.459268,-1.928927 0.03061,-0.887916 0.520502,-2.694372 0.520505,-1.806453 0.520505,-2.02078 0.03061,-0.796063 -0.551122,-0.796063 -0.183707,0 -1.041007,0.642976 l -0.704212,-0.826683 q 0.979773,-0.887919 1.959543,-1.775839 1.316571,-1.163477 1.990163,-1.224714 0.979773,-0.09185 1.500275,0.551122 0.551122,0.612358 0.520505,1.622748 -0.03061,0.765446 -0.367415,2.418812 -0.306177,1.622745 -0.306177,2.204487 -0.03061,1.102243 0.612355,1.102243 0.918537,0 2.082017,-1.347187 1.194097,-1.377805 1.224714,-2.571902 0.03061,-0.459268 -0.244953,-0.796063 -0.275561,-0.367414 -0.734829,-0.367414 -0.489888,0 -1.01039,0.214315 0.918537,-3.276113 3.765999,-3.18426 2.326958,0.06125 2.265721,2.541285 -0.03061,0.796066 -0.367414,2.388194 -0.367415,1.683983 -0.398032,2.082014 -0.09185,1.439041 1.071627,1.439041 1.255331,0 3.245494,-2.204487 z" />
    <path
       id="path864-2"
       style="font-style:normal;font-weight:normal;font-size:10.58333302px;line-height:1.25;font-family:sans-serif;letter-spacing:0px;word-spacing:0px;fill:#222222;fill-opacity:1;stroke:none;stroke-width:0.7654469"
       d="m 44.192404,54.668208 q -0.857299,1.622748 -2.357574,2.939316 -2.0514,1.775839 -4.102797,1.775839 -1.99016,0 -1.928926,-2.204487 0.03061,-1.01039 0.336797,-2.388195 0.306178,-1.408424 0.336798,-2.14325 0.06124,-1.132864 -0.612358,-1.132864 -1.01039,0 -2.204488,1.622749 -1.316567,1.775836 -1.377804,3.765999 -0.06124,1.959543 0.214315,2.602518 -3.796615,0.09185 -3.796615,-2.878079 0,-0.306181 0.03061,-0.642976 0.520505,-1.775838 1.04101,-4.378357 0.03061,-0.612356 -0.275561,-0.612356 -0.183707,0 -1.04101,0.642976 L 27.75059,50.810358 q 0.153099,-0.122462 1.928926,-1.806456 1.255331,-1.194097 1.714599,-1.194097 1.408424,0 1.408424,1.990163 0,0.459268 -0.09185,0.918536 0.765446,-0.704212 1.561512,-1.224717 1.898306,-1.224714 3.643525,-1.377804 1.469658,-0.122462 2.112634,0.704212 0.551121,0.673592 0.489885,1.928926 -0.03061,0.8573 -0.428649,2.510665 -0.367414,1.622749 -0.367414,1.86769 -0.03061,0.642975 0.122462,0.887919 0.153099,0.244953 0.734829,0.244953 0.428651,0 1.530894,-0.918536 0.918537,-0.765449 1.500275,-1.439042 z" />
    <path
       id="path866-6"
       style="font-style:normal;font-weight:normal;font-size:10.58333302px;line-height:1.25;font-family:sans-serif;letter-spacing:0px;word-spacing:0px;fill:#222222;fill-opacity:1;stroke:none;stroke-width:0.7654469"
       d="m 52.765386,49.248846 q 0.122462,0.8573 -0.459269,1.500275 -0.581741,0.642976 -1.439041,0.673593 -1.194097,0.06124 -1.714602,-1.071624 0.03061,0 0.214316,0 0.153099,0.03061 0.183707,0.03061 0.551122,0 0.551122,-0.551122 0.03061,-0.183707 -0.214316,-0.306177 -0.214315,-0.122462 -0.459268,-0.122462 -0.826683,0.03061 -0.97977,1.041009 -0.09185,0.70421 1.561512,2.357575 1.837072,1.837073 2.051397,2.602519 0.122461,0.459268 0.122461,0.857302 0,1.530892 -1.592128,2.449428 -1.377805,0.796066 -3.306731,0.857303 -1.959543,0.06124 -3.276111,-0.551122 -1.683985,-0.796066 -1.592131,-2.480048 0.06124,-1.04101 0.826682,-1.745219 0.765449,-0.734829 2.02078,-0.673595 1.439041,0.06124 1.439041,1.592131 0,0.214316 -0.03061,0.398032 -0.275561,-0.367415 -1.01039,-0.306178 -0.704212,0.06124 -0.642975,0.734829 0.03061,0.489885 0.887916,0.551122 0.918537,0.06124 1.408425,-0.367415 0.520501,-0.428651 0.459268,-1.102243 -0.03061,-0.489888 -0.979773,-1.408425 -1.255334,-1.194097 -1.653366,-1.745216 -0.826682,-1.16348 -0.673592,-2.449431 0.122462,-0.979773 1.13286,-1.775836 1.285951,-1.01039 3.367962,-1.071626 3.521061,-0.122462 3.796622,2.08201 z" />
    <path
       id="path868-7"
       style="font-style:normal;font-weight:normal;font-size:10.58333302px;line-height:1.25;font-family:sans-serif;letter-spacing:0px;word-spacing:0px;fill:#222222;fill-opacity:1;stroke:none;stroke-width:0.7654469"
       d="m 60.144273,43.768245 q -0.03061,0.765446 -0.765446,1.469659 -0.826683,0.796065 -1.959546,0.796065 -1.745219,0 -1.683983,-1.530895 0.03061,-0.796065 0.918537,-1.530894 0.918536,-0.734829 2.02078,-0.734829 0.642975,0 1.071626,0.520504 0.428649,0.489886 0.398032,1.01039 z m 2.663755,10.899963 q -0.8573,1.622748 -2.357577,2.939316 -2.051397,1.775839 -4.102794,1.775839 -0.949156,0 -1.469658,-0.612359 -0.489888,-0.612358 -0.459268,-1.592128 0.03061,-1.01039 0.612355,-3.123024 0.612359,-2.112633 0.612359,-2.265724 0,-0.796063 -0.551122,-0.796063 -0.183707,0 -1.041007,0.642976 l -0.704212,-0.826683 q 0.979773,-0.887919 1.959543,-1.775839 1.316571,-1.163477 1.959546,-1.224714 1.01039,-0.09185 1.469658,0.612359 0.489885,0.673592 0.367415,1.775836 -0.398034,1.867689 -0.857303,4.745769 -0.03061,1.31657 0.949157,1.31657 0.428648,0 1.530891,-0.918536 0.918537,-0.765449 1.500278,-1.439041 z" />
    <path
       id="path870-5"
       style="font-style:normal;font-weight:normal;font-size:10.58333302px;line-height:1.25;font-family:sans-serif;letter-spacing:0px;word-spacing:0px;fill:#222222;fill-opacity:1;stroke:none;stroke-width:0.7654469"
       d="m 77.014695,54.821298 q -1.683982,1.806456 -5.756162,3.857853 -2.510665,8.848565 -7.378907,8.848565 -3.276114,0 -3.000553,-2.969933 0.153099,-1.714602 2.265724,-3.245494 1.500275,-1.071627 4.776389,-2.541285 0.367414,-1.102243 0.581738,-2.051397 -2.449428,2.602519 -5.082566,2.571902 -1.806456,-0.03061 -2.510665,-1.439041 -0.489888,-1.041007 -0.367415,-2.541285 0.275561,-3.214874 2.571902,-5.388744 2.296341,-2.204487 5.511218,-2.204487 1.469658,0 2.816842,0.398031 1.347188,0.367415 1.622749,0.857302 -0.428651,2.87808 -1.408421,8.113737 3.459818,-1.653365 4.868242,-3.06179 z m -8.35868,-3.123023 q 0.03061,-0.551122 -0.214316,-0.8573 -0.214315,-0.336798 -0.796066,-0.306178 -1.224714,0.06125 -2.326957,1.775836 -0.918537,1.469658 -0.979773,2.571902 -0.06125,1.13286 1.01039,1.13286 1.071626,0 2.17387,-1.622748 1.041007,-1.500275 1.13286,-2.694372 z m -1.653366,9.032272 q -2.694372,1.316571 -2.755609,2.112634 -0.03061,0.428651 0.459268,0.428651 0.88792,0 2.296341,-2.541285 z" />
    <path
       id="path872-6"
       style="font-style:normal;font-weight:normal;font-size:10.58333302px;line-height:1.25;font-family:sans-serif;letter-spacing:0px;word-spacing:0px;fill:#222222;fill-opacity:1;stroke:none;stroke-width:0.7654469"
       d="m 89.690456,54.668208 q -0.857303,1.622748 -2.357578,2.939316 -2.051397,1.775839 -4.102796,1.775839 -1.99016,0 -1.928927,-2.204487 0.03061,-1.01039 0.336798,-2.388195 0.306178,-1.408424 0.336798,-2.14325 0.06124,-1.132864 -0.612359,-1.132864 -1.01039,0 -2.204487,1.622749 -1.316568,1.775836 -1.377804,3.765999 -0.06125,1.959543 0.214315,2.602518 -3.796619,0.09185 -3.796619,-2.878079 0,-0.306181 0.03061,-0.642976 0.520502,-1.775838 1.041006,-4.378357 0.03061,-0.612356 -0.27556,-0.612356 -0.183708,0 -1.041007,0.642976 l -0.704212,-0.826683 q 0.153099,-0.122462 1.928926,-1.806456 1.255334,-1.194097 1.714602,-1.194097 1.408421,0 1.408421,1.990163 0,0.459268 -0.09185,0.918536 0.765446,-0.704212 1.561511,-1.224717 1.898307,-1.224714 3.643526,-1.377804 1.469658,-0.122462 2.112633,0.704212 0.551122,0.673592 0.489888,1.928926 -0.03061,0.8573 -0.428651,2.510665 -0.367415,1.622749 -0.367415,1.86769 -0.03061,0.642975 0.122462,0.887919 0.153099,0.244953 0.734829,0.244953 0.428652,0 1.530895,-0.918536 0.918537,-0.765449 1.500275,-1.439042 z" />
    <path
       id="path874-9"
       style="font-style:normal;font-weight:normal;font-size:10.58333302px;line-height:1.25;font-family:sans-serif;letter-spacing:0px;word-spacing:0px;fill:#222222;fill-opacity:1;stroke:none;stroke-width:0.7654469"
       d="m 101.72326,54.637591 q -0.88793,1.469658 -3.49044,2.939316 -3.2455,1.86769 -6.58285,1.86769 -2.480045,0 -3.551669,-1.653366 -0.765449,-1.13286 -0.734829,-2.694372 0.03061,-2.480048 2.204487,-4.715152 2.388192,-2.449431 5.633691,-2.449431 3.000547,0 3.184255,2.449431 0.122462,1.561512 -1.714597,3.214877 -1.959549,1.806453 -4.929485,2.296341 0.551122,0.765446 1.653366,0.765446 2.204487,0 4.807008,-1.132861 1.867693,-0.796066 2.939313,-1.653365 z m -6.950267,-3.214877 q 0.03061,-0.826683 -0.673586,-0.826683 -0.918537,0 -1.867696,1.285951 -0.949156,1.255334 -0.979767,2.418811 0,0 0,0.398035 1.500269,-0.551122 2.602513,-1.683986 0.887925,-0.97977 0.918536,-1.592128 z" />
    <path
       id="path876-8"
       style="font-style:normal;font-weight:normal;font-size:10.58333302px;line-height:1.25;font-family:sans-serif;letter-spacing:0px;word-spacing:0px;fill:#222222;fill-opacity:1;stroke:none;stroke-width:0.7654469"
       d="m 115.53191,54.668208 q -0.85731,1.622748 -2.35759,2.939316 -2.05139,1.775839 -4.10279,1.775839 -1.95955,0 -1.8983,-2.204487 -0.79608,0.826682 -2.11264,1.439038 -1.46965,0.704212 -2.66375,0.673595 -1.74522,-0.03061 -2.418821,-1.439041 -0.489888,-1.01039 -0.367415,-2.449431 0.214316,-2.173868 1.775846,-4.194647 2.08201,-2.694373 5.44997,-3.214878 0.58174,-0.09185 1.56151,-0.09185 0.0613,-0.765446 0.18371,-2.235104 0.12246,-1.561512 -0.61236,-2.326961 -0.42864,-0.489885 -0.88791,-0.489885 -0.48989,0 -1.01039,0.183707 1.28595,-3.276113 4.13342,-3.18426 2.51065,0.09185 2.48005,3.092407 0,1.041007 -0.97979,5.541835 -1.01039,4.592681 -1.07162,6.18481 -0.0613,1.439041 1.07162,1.439041 0.6736,0 1.77584,-0.8573 0.85731,-0.642975 1.46966,-1.347187 z m -7.80756,-2.84746 q 0.0306,-0.612358 -0.0613,-0.857302 -0.1837,-0.398032 -0.73482,-0.367415 -1.22472,0.06124 -2.35758,1.653365 -1.01039,1.408422 -1.04101,2.418812 -0.0306,1.285951 0.91854,1.285951 1.07162,0 2.17387,-1.561512 1.041,-1.469658 1.10224,-2.571899 z" />
    <path
       id="path878-7"
       style="font-style:normal;font-weight:normal;font-size:10.58333302px;line-height:1.25;font-family:sans-serif;letter-spacing:0px;word-spacing:0px;fill:#00b22d;fill-opacity:1;stroke:none;stroke-width:0.7654469"
       d="m 120.64042,57.196752 q -0.1531,0.857302 -0.91854,1.561511 -0.91854,0.826683 -2.23511,0.826683 -1.86769,0 -1.62274,-1.622746 0.12246,-0.826682 1.16348,-1.592131 1.041,-0.796063 2.20448,-0.796063 0.70421,0 1.10225,0.520502 0.39803,0.520505 0.30618,1.102244 z" />
    <path
       id="path880-2"
       style="font-style:normal;font-weight:normal;font-size:10.58333302px;line-height:1.25;font-family:sans-serif;letter-spacing:0px;word-spacing:0px;fill:#00b22d;fill-opacity:1;stroke:none;stroke-width:0.7654469"
       d="m 133.83421,42.213188 q 0.0306,1.530895 -0.79606,2.939316 -0.91855,1.592132 -2.23511,1.592132 -0.82668,0 -1.13287,-0.704212 -0.1531,-0.306178 -0.24495,-1.285951 -0.0919,-0.704212 -0.36742,-0.704212 -0.55112,0 -1.3778,4.072179 h 2.69437 q 0.3368,0 0.27556,0.306178 l -0.27556,1.316568 q -0.0306,0.214315 -0.27556,0.214315 h -2.72499 q -0.48989,2.633136 -0.58174,5.143801 -0.0306,1.132863 1.07163,1.132863 0.42865,0 1.53089,-0.918536 0.91854,-0.765449 1.50027,-1.439041 l 0.58174,0.765446 q -0.8573,1.622748 -2.35757,2.939316 -2.0514,1.775839 -4.1028,1.775839 -1.99016,0 -1.92892,-2.204488 0.0612,-1.898309 0.91853,-7.1952 h -0.97977 q -0.3368,0 -0.27556,-0.30618 l 0.27556,-1.316568 q 0.0306,-0.214316 0.27556,-0.214316 h 0.97977 q 0.3368,-2.082016 0.42865,-2.541284 1.1941,-5.664309 5.05195,-5.664309 1.13286,0 1.5309,0.857303 0.0306,0.09185 0.36741,1.622745 0.21432,0.857303 0.82668,0.857303 0.36742,0 1.34719,-1.04101 z" />
    <path
       id="path882-8"
       style="font-style:normal;font-weight:normal;font-size:10.58333302px;line-height:1.25;font-family:sans-serif;letter-spacing:0px;word-spacing:0px;fill:#00b22d;fill-opacity:1;stroke:none;stroke-width:0.7654469"
       d="m 152.6642,54.644045 q -0.85731,1.622749 -2.35759,2.939316 -2.05139,1.775839 -4.10279,1.775839 -1.99016,0 -1.92892,-2.204487 0.0306,-0.979773 0.36741,-2.357578 0.36742,-1.377804 0.39804,-2.14325 0.0306,-1.16348 -0.70423,-1.16348 -0.79605,0 -1.8983,1.898309 -1.16347,1.99016 -1.25533,3.857853 -0.0612,1.316567 0.24496,2.020779 -2.14326,0.06125 -3.00056,-0.704212 -0.76545,-0.673592 -0.70421,-2.235104 0.0306,-0.979773 0.30618,-1.959546 0.27556,-0.97977 0.30618,-1.745216 0.0612,-1.132863 -0.82669,-1.132863 -0.76544,0 -1.65336,1.745219 -0.88792,1.745219 -0.97977,3.643528 -0.0613,1.714599 0.21431,2.388194 -2.11263,0.06125 -3.00055,-0.887919 -0.73483,-0.796066 -0.67359,-2.418811 0.0306,-0.796066 0.27556,-2.204487 0.27556,-1.439042 0.30618,-2.235104 0.0612,-0.551122 -0.27556,-0.551122 -0.18371,0 -1.04101,0.642975 l -0.73483,-0.826682 q 0.1531,-0.122462 1.92893,-1.775839 1.28595,-1.194097 1.74522,-1.224714 0.79606,-0.06125 1.28595,0.673592 0.48988,0.704212 0.48988,1.653365 0,0.306181 -0.0612,0.581742 0.45926,-0.704212 1.07162,-1.224717 1.40842,-1.224714 3.15364,-1.377805 1.50028,-0.122461 2.14326,0.704213 0.5205,0.673592 0.48988,1.928926 0.21432,-0.183707 0.45927,-0.398032 0.70421,-0.826682 1.3778,-1.31657 1.13286,-0.826683 2.35758,-0.918537 1.46966,-0.122461 2.11264,0.704213 0.55112,0.673592 0.48988,1.928926 -0.0306,0.857299 -0.42865,2.510665 -0.36742,1.622748 -0.36742,1.867689 -0.0306,0.642976 0.12247,0.88792 0.1531,0.244952 0.73483,0.244952 0.42864,0 1.53088,-0.918536 0.91854,-0.765449 1.50029,-1.439041 z" />
  </g>
</svg>
